<?xml version="1.0" encoding="UTF-8" standalone="no"?>
<!DOCTYPE svg PUBLIC "-//W3C//DTD SVG 1.1//EN" "http://www.w3.org/Graphics/SVG/1.1/DTD/svg11.dtd">
<svg width="100%" height="100%" viewBox="0 0 456 456" version="1.1" xmlns="http://www.w3.org/2000/svg" xmlns:xlink="http://www.w3.org/1999/xlink" xml:space="preserve" xmlns:serif="http://www.serif.com/" style="fill-rule:evenodd;clip-rule:evenodd;">
    <g transform="translate(228 228) scale(1.08) translate(-228 -228)">
    <path d="M378,124L378,332C378,351.869 361.869,368 342,368L114,368C94.131,368 78,351.869 78,332L78,124C78,104.131 94.131,88 114,88L342,88C361.869,88 378,104.131 378,124Z" style="fill:rgb(199,210,212);stroke:rgb(42,51,69);stroke-width:8px;"/>
    <path d="M378,120C378,137.661 363.661,152 346,152L110,152C92.339,152 78,137.661 78,120C78,102.339 92.339,88 110,88L346,88C363.661,88 378,102.339 378,120Z" style="fill:rgb(255,183,74);"/>
    <path d="M164,72L164,112C164,120.831 156.831,128 148,128C139.169,128 132,120.831 132,112L132,72C132,63.169 139.169,56 148,56C156.831,56 164,63.169 164,72Z" style="fill:rgb(233,107,68);"/>
    <path d="M324,72L324,112C324,120.831 316.831,128 308,128C299.169,128 292,120.831 292,112L292,72C292,63.169 299.169,56 308,56C316.831,56 324,63.169 324,72Z" style="fill:rgb(233,107,68);"/>
    <path d="M162,212L162,232C162,238.623 156.623,244 150,244L130,244C123.377,244 118,238.623 118,232L118,212C118,205.377 123.377,200 130,200L150,200C156.623,200 162,205.377 162,212Z" style="fill:rgb(43,140,255);"/>
    <path d="M240,212L240,232C240,238.623 234.623,244 228,244L208,244C201.377,244 196,238.623 196,232L196,212C196,205.377 201.377,200 208,200L228,200C234.623,200 240,205.377 240,212Z" style="fill:rgb(56,211,159);"/>
    <path d="M318,212L318,232C318,238.623 312.623,244 306,244L286,244C279.377,244 274,238.623 274,232L274,212C274,205.377 279.377,200 286,200L306,200C312.623,200 318,205.377 318,212Z" style="fill:rgb(255,106,136);"/>
    <path d="M162,276L162,296C162,302.623 156.623,308 150,308L130,308C123.377,308 118,302.623 118,296L118,276C118,269.377 123.377,264 130,264L150,264C156.623,264 162,269.377 162,276Z" style="fill:rgb(247,208,96);"/>
    <path d="M240,276L240,296C240,302.623 234.623,308 228,308L208,308C201.377,308 196,302.623 196,296L196,276C196,269.377 201.377,264 208,264L228,264C234.623,264 240,269.377 240,276Z" style="fill:rgb(43,140,255);"/>
    <path d="M318,276L318,296C318,302.623 312.623,308 306,308L286,308C279.377,308 274,302.623 274,296L274,276C274,269.377 279.377,264 286,264L306,264C312.623,264 318,269.377 318,276Z" style="fill:rgb(56,211,159);"/>
    </g>
</svg>
