<?xml version="1.0" encoding="UTF-8" standalone="no"?>
<!DOCTYPE svg PUBLIC "-//W3C//DTD SVG 1.1//EN" "http://www.w3.org/Graphics/SVG/1.1/DTD/svg11.dtd">
<svg width="100%" height="100%" viewBox="0 0 2084 2084" version="1.1" xmlns="http://www.w3.org/2000/svg" xmlns:xlink="http://www.w3.org/1999/xlink" xml:space="preserve" xmlns:serif="http://www.serif.com/" style="fill-rule:evenodd;clip-rule:evenodd;stroke-linejoin:round;stroke-miterlimit:2;">
    <g transform="matrix(3.87957,0,0,3.87957,163.343,136.43)">

        <g transform="matrix(1.02487,-0.00681195,0.00667688,1.00455,-21.5115,74.9674)">
            <g id="Hat---Goggles" serif:id="Hat &amp; Goggles" transform="matrix(1,0,0,1,92.601,0)">
                <g id="Hat" transform="matrix(0.707266,0.00479605,-0.00470095,0.721574,-18.1198,-19.3274)">
                    <path d="M139.504,289.111C140.758,280.867 141.309,272.136 141.312,263.116C143.047,263.035 143.691,262.162 143.684,261.101C144.098,256.119 143.719,250.6 143.202,244.425C143.195,243.319 142.018,242.429 140.575,242.439L140.459,242.44C135.092,174.006 106.483,98.019 115.172,92.229C129.374,82.764 184.402,74.039 236.075,73.97C296.969,73.889 355.017,83.848 362.515,89.942C367.171,93.726 343.854,169.451 348.182,238.483L347.928,238.515C346.497,238.699 345.455,239.738 345.601,240.835C345.947,247.021 346.337,252.54 347.439,257.419C347.585,258.516 348.405,259.316 350.295,259.074C350.329,259.073 350.36,259.073 350.39,259.073C351.834,268.303 353.912,277.255 356.769,285.721C400.136,275.639 426.928,265.264 426.981,273.321C427.072,287.045 346.859,318.965 241.839,319.663C136.818,320.361 73.11,292.499 73.019,278.776C72.964,270.479 97.156,280.244 139.504,289.111ZM193.438,211.732C217.18,211.575 236.577,229.761 236.727,252.32C236.877,274.878 217.724,293.321 193.982,293.479C170.24,293.637 150.842,275.45 150.692,252.892C150.542,230.333 169.696,211.89 193.438,211.732ZM297.705,211.039C321.447,210.882 340.844,229.068 340.994,251.627C341.144,274.185 321.99,292.628 298.248,292.786C274.506,292.944 255.109,274.757 254.959,252.199C254.809,229.64 273.963,211.197 297.705,211.039ZM252.777,250.32C252.769,249.062 251.892,247.896 250.476,247.905C247.675,244.524 242.126,245.831 241.112,247.65C239.697,247.659 238.558,249.157 238.566,250.414L238.593,254.497C238.601,255.755 239.572,255.67 240.987,255.661C244.114,252.681 247.245,252.101 250.154,255.597C251.569,255.587 252.728,255.084 252.72,253.826L252.777,250.32Z" style="fill:white;"/>
                </g>
                <g id="Goggles" transform="matrix(2.02606,0,0,2.02606,-355.934,-114.539)">
                    <g transform="matrix(0.864071,0,0,1.00256,24.8283,-3.97864)">
                        <ellipse cx="284.096" cy="141.152" rx="14.466" ry="12.086" style="fill:white;"/>
                    </g>
                    <g transform="matrix(0.349084,0.00236718,-0.00232024,0.356146,166.735,46.9933)">
                        <path d="M185.447,219.893C204.61,215.062 223.895,225.921 228.486,244.129C233.077,262.336 221.246,281.041 202.083,285.873C182.921,290.705 163.636,279.845 159.045,261.638C154.454,243.43 166.284,224.725 185.447,219.893ZM211.475,242.725L209.084,239.03L211.227,237.161L211.274,237.114L211.329,237.052L211.404,236.964L211.495,236.846L211.601,236.698L211.72,236.519L211.85,236.307L211.988,236.062L212.131,235.782L212.278,235.468L212.426,235.117L212.573,234.731L212.716,234.308L212.852,233.848L212.979,233.351L213.094,232.818L213.196,232.249L213.28,231.643L211.413,230.089L210.833,230.282L210.291,230.485L209.788,230.695L209.322,230.91L208.895,231.127L208.505,231.344L208.151,231.559L207.834,231.768L207.551,231.97L207.302,232.162L207.086,232.342L206.901,232.507L206.746,232.657L206.62,232.788L206.521,232.9L206.447,232.989L206.397,233.055L206.368,233.095L206.359,233.109L204.708,235.748L200.842,233.874L201.904,230.95L201.91,230.935L201.924,230.887L201.945,230.807L201.97,230.694L201.996,230.548L202.022,230.368L202.044,230.154L202.061,229.907L202.069,229.626L202.067,229.313L202.052,228.966L202.021,228.588L201.971,228.179L201.902,227.739L201.809,227.269L201.691,226.772L201.546,226.247L201.372,225.698L201.166,225.124L198.786,224.62L198.36,225.06L197.974,225.491L197.624,225.911L197.311,226.317L197.032,226.708L196.787,227.081L196.572,227.435L196.387,227.768L196.23,228.077L196.098,228.363L195.989,228.622L195.902,228.854L195.834,229.058L195.783,229.233L195.747,229.377L195.723,229.49L195.709,229.572L195.702,229.621L195.7,229.637L195.459,232.735L191.157,232.88L190.742,229.804L190.74,229.787L190.73,229.739L190.712,229.659L190.681,229.547L190.637,229.406L190.576,229.235L190.497,229.036L190.397,228.81L190.274,228.558L190.127,228.282L189.952,227.984L189.749,227.664L189.515,227.325L189.249,226.969L188.949,226.598L188.613,226.214L188.241,225.818L187.831,225.414L187.381,225.003L185.034,225.666L184.861,226.252L184.717,226.813L184.602,227.346L184.513,227.85L184.446,228.325L184.402,228.769L184.375,229.181L184.365,229.56L184.369,229.907L184.385,230.22L184.409,230.5L184.439,230.745L184.474,230.957L184.51,231.135L184.544,231.279L184.576,231.39L184.601,231.469L184.618,231.515L184.624,231.531L185.848,234.378L182.094,236.507L180.298,233.984L180.288,233.971L180.257,233.932L180.204,233.87L180.125,233.786L180.02,233.682L179.887,233.559L179.724,233.42L179.53,233.267L179.304,233.102L179.045,232.927L178.752,232.745L178.423,232.557L178.058,232.367L177.656,232.176L177.217,231.988L176.741,231.805L176.227,231.629L175.675,231.463L175.085,231.309L173.308,232.986L173.427,233.584L173.559,234.146L173.705,234.67L173.859,235.157L174.021,235.607L174.187,236.02L174.355,236.396L174.523,236.736L174.687,237.04L174.846,237.309L174.997,237.545L175.138,237.748L175.267,237.918L175.382,238.059L175.479,238.17L175.559,238.254L175.618,238.311L175.654,238.344L175.667,238.355L178.075,240.3L175.731,243.926L172.965,242.534L172.95,242.527L172.904,242.507L172.828,242.477L172.719,242.439L172.577,242.396L172.402,242.35L172.193,242.303L171.95,242.258L171.673,242.217L171.361,242.183L171.016,242.159L170.637,242.146L170.224,242.148L169.779,242.167L169.302,242.205L168.794,242.264L168.256,242.348L167.688,242.458L167.093,242.597L166.294,244.904L166.677,245.377L167.056,245.811L167.428,246.207L167.792,246.565L168.144,246.887L168.483,247.174L168.807,247.428L169.113,247.65L169.401,247.842L169.667,248.006L169.911,248.144L170.13,248.257L170.324,248.348L170.491,248.418L170.629,248.471L170.738,248.508L170.817,248.532L170.865,248.544L170.881,248.547L173.923,249.144L173.524,253.436L170.422,253.494L170.405,253.494L170.356,253.498L170.274,253.508L170.16,253.525L170.014,253.553L169.837,253.593L169.629,253.649L169.392,253.722L169.127,253.815L168.835,253.93L168.517,254.069L168.175,254.235L167.809,254.428L167.423,254.652L167.017,254.907L166.593,255.196L166.154,255.52L165.701,255.882L165.238,256.281L165.599,258.689L166.159,258.929L166.696,259.136L167.211,259.312L167.7,259.46L168.162,259.58L168.596,259.675L169.002,259.749L169.377,259.802L169.721,259.838L170.034,259.859L170.314,259.867L170.562,259.865L170.776,259.856L170.957,259.84L171.104,259.823L171.218,259.804L171.299,259.788L171.348,259.777L171.363,259.773L174.342,258.884L175.98,262.859L173.252,264.353L173.238,264.362L173.195,264.388L173.127,264.434L173.034,264.503L172.917,264.595L172.779,264.714L172.62,264.859L172.444,265.034L172.252,265.24L172.046,265.477L171.828,265.748L171.601,266.053L171.366,266.394L171.126,266.771L170.884,267.185L170.643,267.637L170.403,268.128L170.169,268.658L169.942,269.226L171.381,271.184L171.99,271.136L172.564,271.069L173.102,270.985L173.604,270.887L174.071,270.778L174.501,270.661L174.895,270.537L175.253,270.41L175.576,270.281L175.863,270.154L176.116,270.031L176.334,269.914L176.52,269.806L176.674,269.708L176.796,269.624L176.889,269.555L176.954,269.503L176.991,269.47L177.003,269.459L179.235,267.289L182.536,270.036L180.807,272.625L180.798,272.639L180.773,272.682L180.734,272.755L180.682,272.859L180.622,272.995L180.554,273.163L180.481,273.366L180.406,273.602L180.33,273.873L180.257,274.178L180.19,274.519L180.129,274.894L180.079,275.304L180.042,275.748L180.019,276.227L180.014,276.739L180.03,277.283L180.067,277.86L180.13,278.467L182.317,279.527L182.835,279.201L183.313,278.874L183.752,278.55L184.153,278.23L184.517,277.917L184.844,277.613L185.137,277.32L185.396,277.041L185.622,276.778L185.818,276.532L185.986,276.306L186.126,276.101L186.24,275.919L186.331,275.761L186.401,275.63L186.451,275.525L186.485,275.45L186.503,275.403L186.508,275.388L187.483,272.434L191.689,273.324L191.356,276.414L191.354,276.43L191.352,276.48L191.351,276.562L191.354,276.678L191.363,276.826L191.381,277.007L191.41,277.219L191.453,277.463L191.512,277.737L191.589,278.041L191.687,278.373L191.808,278.732L191.953,279.117L192.126,279.527L192.329,279.96L192.562,280.414L192.828,280.888L193.129,281.379L193.467,281.886L195.901,281.804L196.21,281.276L196.483,280.765L196.722,280.274L196.929,279.805L197.107,279.36L197.257,278.939L197.381,278.545L197.481,278.178L197.56,277.84L197.62,277.532L197.663,277.254L197.692,277.008L197.71,276.794L197.718,276.613L197.718,276.464L197.715,276.349L197.709,276.266L197.704,276.217L197.702,276.201L197.195,273.139L201.344,271.968L202.482,274.851L202.489,274.867L202.509,274.911L202.547,274.985L202.603,275.085L202.68,275.212L202.78,275.363L202.904,275.537L203.056,275.732L203.235,275.947L203.445,276.179L203.686,276.427L203.96,276.688L204.268,276.96L204.612,277.242L204.992,277.53L205.41,277.822L205.867,278.117L206.362,278.41L206.898,278.701L209.021,277.497L209.05,276.886L209.055,276.308L209.04,275.764L209.006,275.253L208.957,274.777L208.895,274.336L208.822,273.93L208.74,273.56L208.654,273.225L208.564,272.924L208.474,272.659L208.385,272.428L208.301,272.231L208.224,272.068L208.155,271.936L208.099,271.836L208.055,271.766L208.028,271.725L208.018,271.711L206.147,269.243L209.288,266.28L211.637,268.296L211.689,268.336L211.756,268.384L211.853,268.446L211.98,268.522L212.139,268.609L212.33,268.705L212.555,268.807L212.814,268.913L213.108,269.021L213.437,269.127L213.802,269.23L214.202,269.327L214.638,269.416L215.11,269.493L215.617,269.557L216.159,269.604L216.735,269.633L217.345,269.641L218.672,267.59L218.414,267.037L218.15,266.525L217.884,266.051L217.617,265.616L217.352,265.218L217.092,264.858L216.839,264.534L216.595,264.244L216.362,263.989L216.143,263.765L215.94,263.573L215.754,263.411L215.588,263.276L215.443,263.167L215.321,263.083L215.224,263.021L215.153,262.979L215.11,262.955L215.095,262.948L212.288,261.64L213.701,257.562L216.723,258.249L216.739,258.253L216.788,258.261L216.87,258.271L216.985,258.282L217.133,258.29L217.314,258.293L217.529,258.288L217.776,258.273L218.055,258.247L218.366,258.205L218.708,258.146L219.079,258.067L219.48,257.967L219.908,257.842L220.363,257.691L220.842,257.511L221.346,257.301L221.871,257.058L222.416,256.781L222.642,254.353L222.156,253.986L221.684,253.655L221.228,253.361L220.789,253.101L220.369,252.873L219.971,252.676L219.595,252.508L219.244,252.366L218.919,252.248L218.621,252.153L218.351,252.078L218.111,252.021L217.901,251.979L217.722,251.95L217.574,251.932L217.459,251.923L217.377,251.919L217.328,251.918L217.311,251.919L214.211,252.069L213.573,247.812L216.575,247.013L216.591,247.008L216.638,246.993L216.716,246.964L216.823,246.92L216.958,246.858L217.12,246.776L217.309,246.672L217.521,246.545L217.757,246.391L218.013,246.209L218.289,245.998L218.583,245.756L218.892,245.481L219.214,245.172L219.548,244.827L219.89,244.445L220.24,244.025L220.594,243.567L220.949,243.068L220.022,240.819L219.42,240.721L218.848,240.649L218.306,240.601L217.795,240.576L217.317,240.57L216.872,240.581L216.46,240.607L216.083,240.645L215.739,240.693L215.43,240.748L215.156,240.807L214.916,240.868L214.71,240.929L214.538,240.987L214.399,241.04L214.292,241.085L214.217,241.119L214.173,241.142L214.158,241.15L211.475,242.725Z" style="fill:white;"/>
                    </g>
                    <g transform="matrix(0.349084,0.00236718,-0.00232024,0.356146,166.735,46.9933)">
                        <path d="M196.568,269.653L196.568,257.301L207.89,262.341C205.333,266.15 201.276,268.87 196.568,269.653ZM179.641,262.341L190.962,257.301L190.962,269.653C186.254,268.87 182.198,266.15 179.641,262.341ZM210.249,248.713C210.586,250.048 210.765,251.445 210.765,252.883C210.765,254.387 210.57,255.845 210.202,257.234L200.657,252.984L210.249,248.713ZM177.281,248.713L186.873,252.984L177.328,257.234C176.961,255.845 176.765,254.387 176.765,252.883C176.765,251.445 176.944,250.048 177.281,248.713ZM190.962,236.114L190.962,248.668L179.537,243.581C182.088,239.69 186.19,236.907 190.962,236.114ZM196.568,236.114C201.34,236.907 205.443,239.69 207.993,243.581L196.568,248.668L196.568,236.114Z" style="fill:white;"/>
                    </g>
                    <g transform="matrix(0.660579,-0.0681083,0.0494584,0.479695,128.36,73.2644)">
                        <path d="M232.49,158.705C232.49,157.974 232.068,157.38 231.546,157.38L229.658,157.38C229.137,157.38 228.714,157.974 228.714,158.705L228.714,169.622C228.714,170.354 229.137,170.948 229.658,170.948L231.546,170.948C232.068,170.948 232.49,170.354 232.49,169.622L232.49,158.705Z" style="fill:white;"/>
                    </g>
                    <g transform="matrix(0.663767,-0.0204091,0.0148205,0.48201,58.9775,62.9078)">
                        <path d="M232.49,158.706C232.49,157.974 232.068,157.38 231.546,157.38L229.658,157.38C229.137,157.38 228.714,157.974 228.714,158.706L228.714,169.621C228.714,170.353 229.137,170.948 229.658,170.948L231.546,170.948C232.068,170.948 232.49,170.353 232.49,169.621L232.49,158.706Z" style="fill:white;"/>
                    </g>
                </g>
            </g>
            <g id="Handlebars" transform="matrix(1,0,0,1,101.791,25.7787)">
                <path d="M146.482,234.806C146.546,234.706 146.61,234.606 146.676,234.506C151.387,227.313 166.735,226.792 174.02,234.044C179.424,239.424 188.038,244.182 193.847,245.447C218.967,250.916 229.201,231.481 229.201,231.481C229.201,231.481 228.75,249.008 212.141,256.892C203.134,261.167 190.926,262.197 184.45,262.279C184.237,262.282 160.904,263.087 151.55,257.871C149.822,256.907 148.329,255.715 147.111,254.343C145.798,256.046 144.091,257.513 142.054,258.663C132.725,263.924 109.389,263.232 109.175,263.23C102.699,263.18 90.487,262.208 81.459,257.977C64.811,250.174 67.357,231.256 67.357,231.256C67.357,231.256 74.603,252.034 99.697,246.443C105.5,245.15 114.09,240.351 119.469,234.945C126.557,227.82 141.39,228.088 146.482,234.806Z" style="fill:white;"/>
            </g>
        </g>
        <g transform="matrix(1.55222,0,0,0.398207,-1190.71,0.524248)">
            <ellipse cx="913.009" cy="576.497" rx="154.824" ry="574.208" style="fill:none;"/>
        </g>
    </g>
</svg>
